<?xml version="1.0" encoding="utf-8"?>
<!-- Generator: Adobe Illustrator 16.0.0, SVG Export Plug-In . SVG Version: 6.00 Build 0)  -->
<!DOCTYPE svg PUBLIC "-//W3C//DTD SVG 1.1//EN" "http://www.w3.org/Graphics/SVG/1.1/DTD/svg11.dtd">
<svg version="1.1" id="Layer_1" xmlns="http://www.w3.org/2000/svg" xmlns:xlink="http://www.w3.org/1999/xlink" x="0px" y="0px"
	 width="639.333px" height="272px" viewBox="0 0 639.333 272" enable-background="new 0 0 639.333 272" xml:space="preserve">
<g>
	<defs>
		<rect id="SVGID_1_" width="639.333" height="272"/>
	</defs>
	<clipPath id="SVGID_2_">
		<use xlink:href="#SVGID_1_"  overflow="visible"/>
	</clipPath>
	<g clip-path="url(#SVGID_2_)">
		<defs>
			<path id="SVGID_3_" d="M37.876,40.608l-7.217,28.64v13.445l-2.271,24.125l2.271,11.395l4.769,22.18l5.616,9.482l13.824,19.658
				l0.092,0.091l11.31,7.885l23.099,13.54c11.693,4.309,24.468,6.71,37.751,7.029c0.799,0.018,10.903,0.504,11.319-0.306
				c0-0.006,0.012-0.009,0.012-0.009c8.947-21.981,15.723-46.444,14.967-69.688l-0.001-0.001l-3.231-16.603l-8.421-24.525
				l-0.001-0.001l-7.804-8.477l-16.655-19.382l-10.725-5.295L83.264,38.513l-10.486-2.299l-32.251-11.39L37.876,40.608z"/>
		</defs>
		<clipPath id="SVGID_4_">
			<use xlink:href="#SVGID_3_"  overflow="visible"/>
		</clipPath>
		
			<radialGradient id="SVGID_5_" cx="0" cy="272" r="1" gradientTransform="matrix(-77.0702 -146.0277 -146.0277 77.0702 39849.5312 -20775.6797)" gradientUnits="userSpaceOnUse">
			<stop  offset="0" style="stop-color:#00AF95"/>
			<stop  offset="0.0628" style="stop-color:#21B684"/>
			<stop  offset="0.1791" style="stop-color:#58C166"/>
			<stop  offset="0.2873" style="stop-color:#83CA4F"/>
			<stop  offset="0.3839" style="stop-color:#A2D13F"/>
			<stop  offset="0.4656" style="stop-color:#B5D535"/>
			<stop  offset="0.5225" style="stop-color:#BCD631"/>
			<stop  offset="0.5891" style="stop-color:#ACD135"/>
			<stop  offset="0.7679" style="stop-color:#85C63E"/>
			<stop  offset="0.9111" style="stop-color:#6EBF44"/>
			<stop  offset="1" style="stop-color:#65BC46"/>
		</radialGradient>
		<polygon clip-path="url(#SVGID_4_)" fill="url(#SVGID_5_)" points="55.792,250.506 -43.338,62.68 126.77,-27.1 225.9,160.727 		
			"/>
	</g>
	<g clip-path="url(#SVGID_2_)">
		<defs>
			<rect id="SVGID_6_" width="639.333" height="272"/>
		</defs>
		<clipPath id="SVGID_7_">
			<use xlink:href="#SVGID_6_"  overflow="visible"/>
		</clipPath>
		<g opacity="0.35" clip-path="url(#SVGID_7_)">
			<g>
				<defs>
					<rect id="SVGID_8_" x="40.527" y="24.824" width="97.731" height="173.089"/>
				</defs>
				<clipPath id="SVGID_9_">
					<use xlink:href="#SVGID_8_"  overflow="visible"/>
				</clipPath>
				<g clip-path="url(#SVGID_9_)">
					<defs>
						<polygon id="SVGID_10_" points="72.777,36.214 40.527,24.824 138.238,197.914 138.258,197.905 83.264,38.513 						"/>
					</defs>
					<clipPath id="SVGID_11_">
						<use xlink:href="#SVGID_10_"  overflow="visible"/>
					</clipPath>
					<defs>
						
							<filter id="Adobe_OpacityMaskFilter" filterUnits="userSpaceOnUse" x="-21.189" y="-10.022" width="221.163" height="242.783">
							<feColorMatrix  type="matrix" values="1 0 0 0 0  0 1 0 0 0  0 0 1 0 0  0 0 0 1 0"/>
						</filter>
					</defs>
					<mask maskUnits="userSpaceOnUse" x="-21.189" y="-10.022" width="221.163" height="242.783" id="SVGID_12_">
						<g filter="url(#Adobe_OpacityMaskFilter)">
							
								<linearGradient id="SVGID_13_" gradientUnits="userSpaceOnUse" x1="0" y1="272" x2="1" y2="272" gradientTransform="matrix(25.3654 -10.6336 -10.6336 -25.3654 2976.6191 7012.9023)">
								<stop  offset="0" style="stop-color:#000000"/>
								<stop  offset="0.7329" style="stop-color:#FFFFFF"/>
								<stop  offset="1" style="stop-color:#FFFFFF"/>
							</linearGradient>
							<polygon clip-path="url(#SVGID_11_)" fill="url(#SVGID_13_)" points="-21.189,50.696 123.65,-10.022 199.974,172.042 
								55.135,232.761 							"/>
						</g>
					</mask>
					
						<linearGradient id="SVGID_14_" gradientUnits="userSpaceOnUse" x1="0" y1="272" x2="1" y2="272" gradientTransform="matrix(25.3654 -10.6336 -10.6336 -25.3654 2976.6191 7012.9023)">
						<stop  offset="0" style="stop-color:#FFFFFF"/>
						<stop  offset="0.7329" style="stop-color:#004864"/>
						<stop  offset="1" style="stop-color:#004864"/>
					</linearGradient>
					<polygon clip-path="url(#SVGID_11_)" mask="url(#SVGID_12_)" fill="url(#SVGID_14_)" points="-21.189,50.696 123.65,-10.022 
						199.974,172.042 55.135,232.761 					"/>
				</g>
			</g>
		</g>
		<g opacity="0.35" clip-path="url(#SVGID_7_)">
			<g>
				<defs>
					<rect id="SVGID_15_" x="83.283" y="38.526" width="54.995" height="159.379"/>
				</defs>
				<clipPath id="SVGID_16_">
					<use xlink:href="#SVGID_15_"  overflow="visible"/>
				</clipPath>
				<g clip-path="url(#SVGID_16_)">
					<defs>
						<path id="SVGID_17_" d="M106.58,53.792L83.283,38.526l54.975,159.379c0.011-0.004,0.011-0.011,0.02-0.016L117.214,59.041
							L106.58,53.792z"/>
					</defs>
					<clipPath id="SVGID_18_">
						<use xlink:href="#SVGID_17_"  overflow="visible"/>
					</clipPath>
					<defs>
						
							<filter id="Adobe_OpacityMaskFilter_1_" filterUnits="userSpaceOnUse" x="45.146" y="25.367" width="131.269" height="185.698">
							<feColorMatrix  type="matrix" values="1 0 0 0 0  0 1 0 0 0  0 0 1 0 0  0 0 0 1 0"/>
						</filter>
					</defs>
					<mask maskUnits="userSpaceOnUse" x="45.146" y="25.367" width="131.269" height="185.698" id="SVGID_19_">
						<g filter="url(#Adobe_OpacityMaskFilter_1_)">
							
								<linearGradient id="SVGID_20_" gradientUnits="userSpaceOnUse" x1="0" y1="272" x2="1" y2="272" gradientTransform="matrix(20.015 -5.1003 -5.1003 -20.015 1495.1903 5563.0049)">
								<stop  offset="0" style="stop-color:#000000"/>
								<stop  offset="0.7329" style="stop-color:#FFFFFF"/>
								<stop  offset="1" style="stop-color:#FFFFFF"/>
							</linearGradient>
							<polygon clip-path="url(#SVGID_18_)" fill="url(#SVGID_20_)" points="45.146,48.244 134.925,25.367 176.415,188.187 
								86.636,211.064 							"/>
						</g>
					</mask>
					
						<linearGradient id="SVGID_21_" gradientUnits="userSpaceOnUse" x1="0" y1="272" x2="1" y2="272" gradientTransform="matrix(20.015 -5.1003 -5.1003 -20.015 1495.1904 5563.0049)">
						<stop  offset="0" style="stop-color:#FFFFFF"/>
						<stop  offset="0.7329" style="stop-color:#004864"/>
						<stop  offset="1" style="stop-color:#004864"/>
					</linearGradient>
					<polygon clip-path="url(#SVGID_18_)" mask="url(#SVGID_19_)" fill="url(#SVGID_21_)" points="45.146,48.244 134.925,25.367 
						176.415,188.187 86.636,211.064 					"/>
				</g>
			</g>
		</g>
		<g opacity="0.35" clip-path="url(#SVGID_7_)">
			<g>
				<defs>
					<rect id="SVGID_22_" x="117.227" y="59.047" width="24.529" height="138.844"/>
				</defs>
				<clipPath id="SVGID_23_">
					<use xlink:href="#SVGID_22_"  overflow="visible"/>
				</clipPath>
				<g clip-path="url(#SVGID_23_)">
					<defs>
						<path id="SVGID_24_" d="M133.96,78.467l-16.655-19.381l-0.078-0.039l21.051,138.843c0.012-0.006,0.014-0.012,0.025-0.017
							l3.453-110.938L133.96,78.467z"/>
					</defs>
					<clipPath id="SVGID_25_">
						<use xlink:href="#SVGID_24_"  overflow="visible"/>
					</clipPath>
					<defs>
						
							<filter id="Adobe_OpacityMaskFilter_2_" filterUnits="userSpaceOnUse" x="109.575" y="57.695" width="39.833" height="141.547">
							<feColorMatrix  type="matrix" values="1 0 0 0 0  0 1 0 0 0  0 0 1 0 0  0 0 0 1 0"/>
						</filter>
					</defs>
					<mask maskUnits="userSpaceOnUse" x="109.575" y="57.695" width="39.833" height="141.547" id="SVGID_26_">
						<g filter="url(#Adobe_OpacityMaskFilter_2_)">
							
								<linearGradient id="SVGID_27_" gradientUnits="userSpaceOnUse" x1="0" y1="271.9941" x2="1" y2="271.9941" gradientTransform="matrix(15.7605 -0.8713 -0.8713 -15.7605 363.6808 4415.377)">
								<stop  offset="0" style="stop-color:#000000"/>
								<stop  offset="0.7329" style="stop-color:#FFFFFF"/>
								<stop  offset="1" style="stop-color:#FFFFFF"/>
							</linearGradient>
							<polygon clip-path="url(#SVGID_25_)" fill="url(#SVGID_27_)" points="109.575,59.47 141.681,57.695 149.408,197.467 
								117.302,199.242 							"/>
						</g>
					</mask>
					
						<linearGradient id="SVGID_28_" gradientUnits="userSpaceOnUse" x1="0" y1="271.9941" x2="1" y2="271.9941" gradientTransform="matrix(15.7605 -0.8713 -0.8713 -15.7605 363.6808 4415.377)">
						<stop  offset="0" style="stop-color:#FFFFFF"/>
						<stop  offset="0.7329" style="stop-color:#004864"/>
						<stop  offset="1" style="stop-color:#004864"/>
					</linearGradient>
					<polygon clip-path="url(#SVGID_25_)" mask="url(#SVGID_26_)" fill="url(#SVGID_28_)" points="109.575,59.47 141.681,57.695 
						149.408,197.467 117.302,199.242 					"/>
				</g>
			</g>
		</g>
		<g opacity="0.35" clip-path="url(#SVGID_7_)">
			<g>
				<defs>
					<rect id="SVGID_29_" x="138.303" y="86.945" width="15.111" height="110.927"/>
				</defs>
				<clipPath id="SVGID_30_">
					<use xlink:href="#SVGID_29_"  overflow="visible"/>
				</clipPath>
				<g clip-path="url(#SVGID_30_)">
					<defs>
						<path id="SVGID_31_" d="M150.186,111.471l-8.421-24.526l-3.462,110.928c0.013-0.008,0.02-0.017,0.032-0.025l15.08-69.789
							L150.186,111.471z"/>
					</defs>
					<clipPath id="SVGID_32_">
						<use xlink:href="#SVGID_31_"  overflow="visible"/>
					</clipPath>
					<defs>
						
							<filter id="Adobe_OpacityMaskFilter_3_" filterUnits="userSpaceOnUse" x="122.832" y="84.837" width="46.055" height="115.143">
							<feColorMatrix  type="matrix" values="1 0 0 0 0  0 1 0 0 0  0 0 1 0 0  0 0 0 1 0"/>
						</filter>
					</defs>
					<mask maskUnits="userSpaceOnUse" x="122.832" y="84.837" width="46.055" height="115.143" id="SVGID_33_">
						<g filter="url(#Adobe_OpacityMaskFilter_3_)">
							
								<linearGradient id="SVGID_34_" gradientUnits="userSpaceOnUse" x1="0" y1="272.0762" x2="1" y2="272.0762" gradientTransform="matrix(10.7006 1.5227 1.5227 -10.7006 -273.9124 3053.0085)">
								<stop  offset="0" style="stop-color:#000000"/>
								<stop  offset="0.7329" style="stop-color:#FFFFFF"/>
								<stop  offset="1" style="stop-color:#FFFFFF"/>
							</linearGradient>
							<polygon clip-path="url(#SVGID_32_)" fill="url(#SVGID_34_)" points="138.603,84.837 168.886,89.146 153.115,199.98 
								122.832,195.672 							"/>
						</g>
					</mask>
					
						<linearGradient id="SVGID_35_" gradientUnits="userSpaceOnUse" x1="0" y1="272.0762" x2="1" y2="272.0762" gradientTransform="matrix(10.7006 1.5227 1.5227 -10.7006 -273.9124 3053.0088)">
						<stop  offset="0" style="stop-color:#FFFFFF"/>
						<stop  offset="0.7329" style="stop-color:#004864"/>
						<stop  offset="1" style="stop-color:#004864"/>
					</linearGradient>
					<polygon clip-path="url(#SVGID_32_)" mask="url(#SVGID_33_)" fill="url(#SVGID_35_)" points="138.603,84.837 168.886,89.146 
						153.115,199.98 122.832,195.672 					"/>
				</g>
			</g>
		</g>
		<g opacity="0.35" clip-path="url(#SVGID_7_)">
			<g>
				<defs>
					<rect id="SVGID_36_" x="138.335" y="128.074" width="15.14" height="69.774"/>
				</defs>
				<clipPath id="SVGID_37_">
					<use xlink:href="#SVGID_36_"  overflow="visible"/>
				</clipPath>
				<g clip-path="url(#SVGID_37_)">
					<defs>
						<path id="SVGID_38_" d="M138.384,197.812l0.055-0.131c0-0.105,1.149-2.758,1.149-2.758
							c8.377-21.238,14.554-44.601,13.829-66.85l-15.082,69.774C138.353,197.837,138.372,197.825,138.384,197.812"/>
					</defs>
					<clipPath id="SVGID_39_">
						<use xlink:href="#SVGID_38_"  overflow="visible"/>
					</clipPath>
					<defs>
						
							<filter id="Adobe_OpacityMaskFilter_4_" filterUnits="userSpaceOnUse" x="124.613" y="124.964" width="43.25" height="75.992">
							<feColorMatrix  type="matrix" values="1 0 0 0 0  0 1 0 0 0  0 0 1 0 0  0 0 0 1 0"/>
						</filter>
					</defs>
					<mask maskUnits="userSpaceOnUse" x="124.613" y="124.964" width="43.25" height="75.992" id="SVGID_40_">
						<g filter="url(#Adobe_OpacityMaskFilter_4_)">
							
								<linearGradient id="SVGID_41_" gradientUnits="userSpaceOnUse" x1="0" y1="272.0137" x2="1" y2="272.0137" gradientTransform="matrix(5.2619 1.0782 1.0782 -5.2619 -148.502 1593.9631)">
								<stop  offset="0" style="stop-color:#000000"/>
								<stop  offset="0.7329" style="stop-color:#FFFFFF"/>
								<stop  offset="1" style="stop-color:#FFFFFF"/>
							</linearGradient>
							<polygon clip-path="url(#SVGID_39_)" fill="url(#SVGID_41_)" points="138.972,124.964 167.864,130.885 153.505,200.956 
								124.613,195.036 							"/>
						</g>
					</mask>
					
						<linearGradient id="SVGID_42_" gradientUnits="userSpaceOnUse" x1="0" y1="272.0137" x2="1" y2="272.0137" gradientTransform="matrix(5.2619 1.0782 1.0782 -5.2619 -148.502 1593.9633)">
						<stop  offset="0" style="stop-color:#FFFFFF"/>
						<stop  offset="0.7329" style="stop-color:#004864"/>
						<stop  offset="1" style="stop-color:#004864"/>
					</linearGradient>
					<polygon clip-path="url(#SVGID_39_)" mask="url(#SVGID_40_)" fill="url(#SVGID_42_)" points="138.972,124.964 167.864,130.885 
						153.505,200.956 124.613,195.036 					"/>
				</g>
			</g>
		</g>
		<g opacity="0.35" clip-path="url(#SVGID_7_)">
			<g>
				<defs>
					<rect id="SVGID_43_" x="30.66" y="24.936" width="107.235" height="173.084"/>
				</defs>
				<clipPath id="SVGID_44_">
					<use xlink:href="#SVGID_43_"  overflow="visible"/>
				</clipPath>
				<g clip-path="url(#SVGID_44_)">
					<defs>
						<path id="SVGID_45_" d="M30.66,69.248L137.855,198.02c0.015-0.003,0.025-0.007,0.04-0.01L40.508,24.936l-2.632,15.673
							L30.66,69.248z"/>
					</defs>
					<clipPath id="SVGID_46_">
						<use xlink:href="#SVGID_45_"  overflow="visible"/>
					</clipPath>
					<defs>
						
							<filter id="Adobe_OpacityMaskFilter_5_" filterUnits="userSpaceOnUse" x="-46.216" y="-22.693" width="260.987" height="268.341">
							<feColorMatrix  type="matrix" values="1 0 0 0 0  0 1 0 0 0  0 0 1 0 0  0 0 0 1 0"/>
						</filter>
					</defs>
					<mask maskUnits="userSpaceOnUse" x="-46.216" y="-22.693" width="260.987" height="268.341" id="SVGID_47_">
						<g filter="url(#Adobe_OpacityMaskFilter_5_)">
							
								<linearGradient id="SVGID_48_" gradientUnits="userSpaceOnUse" x1="0" y1="272.1074" x2="1" y2="272.1074" gradientTransform="matrix(20.2805 -12.3456 -12.3456 -20.2805 3428.6467 5639.0679)">
								<stop  offset="0" style="stop-color:#000000"/>
								<stop  offset="0.7329" style="stop-color:#FFFFFF"/>
								<stop  offset="1" style="stop-color:#FFFFFF"/>
							</linearGradient>
							<polygon clip-path="url(#SVGID_46_)" fill="url(#SVGID_48_)" points="-46.216,71.734 108.901,-22.693 214.771,151.222 
								59.654,245.648 							"/>
						</g>
					</mask>
					
						<linearGradient id="SVGID_49_" gradientUnits="userSpaceOnUse" x1="0" y1="272.1074" x2="1" y2="272.1074" gradientTransform="matrix(20.2805 -12.3456 -12.3456 -20.2805 3428.6465 5639.0679)">
						<stop  offset="0" style="stop-color:#FFFFFF"/>
						<stop  offset="0.7329" style="stop-color:#004864"/>
						<stop  offset="1" style="stop-color:#004864"/>
					</linearGradient>
					<polygon clip-path="url(#SVGID_46_)" mask="url(#SVGID_47_)" fill="url(#SVGID_49_)" points="-46.216,71.734 108.901,-22.693 
						214.771,151.222 59.654,245.648 					"/>
				</g>
			</g>
		</g>
		<g opacity="0.35" clip-path="url(#SVGID_7_)">
			<g>
				<defs>
					<rect id="SVGID_50_" x="28.388" y="69.27" width="109.467" height="128.758"/>
				</defs>
				<clipPath id="SVGID_51_">
					<use xlink:href="#SVGID_50_"  overflow="visible"/>
				</clipPath>
				<g clip-path="url(#SVGID_51_)">
					<defs>
						<path id="SVGID_52_" d="M28.388,106.819l109.414,91.209c0.016-0.003,0.038-0.005,0.053-0.009L30.66,69.27v13.423
							L28.388,106.819z"/>
					</defs>
					<clipPath id="SVGID_53_">
						<use xlink:href="#SVGID_52_"  overflow="visible"/>
					</clipPath>
					<defs>
						
							<filter id="Adobe_OpacityMaskFilter_6_" filterUnits="userSpaceOnUse" x="-35.915" y="14.602" width="238.072" height="238.095">
							<feColorMatrix  type="matrix" values="1 0 0 0 0  0 1 0 0 0  0 0 1 0 0  0 0 0 1 0"/>
						</filter>
					</defs>
					<mask maskUnits="userSpaceOnUse" x="-35.915" y="14.602" width="238.072" height="238.095" id="SVGID_54_">
						<g filter="url(#Adobe_OpacityMaskFilter_6_)">
							
								<linearGradient id="SVGID_55_" gradientUnits="userSpaceOnUse" x1="0" y1="272.0459" x2="1" y2="272.0459" gradientTransform="matrix(12.3623 -11.7742 -11.7742 -12.3623 3275.4004 3507.085)">
								<stop  offset="0" style="stop-color:#000000"/>
								<stop  offset="0.7329" style="stop-color:#FFFFFF"/>
								<stop  offset="1" style="stop-color:#FFFFFF"/>
							</linearGradient>
							<polygon clip-path="url(#SVGID_53_)" fill="url(#SVGID_55_)" points="-35.915,130.513 85.788,14.602 202.158,136.785 
								80.456,252.696 							"/>
						</g>
					</mask>
					
						<linearGradient id="SVGID_56_" gradientUnits="userSpaceOnUse" x1="0" y1="272.0459" x2="1" y2="272.0459" gradientTransform="matrix(12.3623 -11.7742 -11.7742 -12.3623 3275.4004 3507.085)">
						<stop  offset="0" style="stop-color:#FFFFFF"/>
						<stop  offset="0.7329" style="stop-color:#004864"/>
						<stop  offset="1" style="stop-color:#004864"/>
					</linearGradient>
					<polygon clip-path="url(#SVGID_53_)" mask="url(#SVGID_54_)" fill="url(#SVGID_56_)" points="-35.915,130.513 85.788,14.602 
						202.158,136.785 80.456,252.696 					"/>
				</g>
			</g>
		</g>
		<g opacity="0.35" clip-path="url(#SVGID_7_)">
			<g>
				<defs>
					<rect id="SVGID_57_" x="28.392" y="106.837" width="109.41" height="91.202"/>
				</defs>
				<clipPath id="SVGID_58_">
					<use xlink:href="#SVGID_57_"  overflow="visible"/>
				</clipPath>
				<g clip-path="url(#SVGID_58_)">
					<defs>
						<path id="SVGID_59_" d="M30.66,118.213l4.765,22.168l102.304,57.659c0.022-0.004,0.051-0.007,0.073-0.012l-109.41-91.191
							L30.66,118.213z"/>
					</defs>
					<clipPath id="SVGID_60_">
						<use xlink:href="#SVGID_59_"  overflow="visible"/>
					</clipPath>
					<defs>
						
							<filter id="Adobe_OpacityMaskFilter_7_" filterUnits="userSpaceOnUse" x="-15.883" y="53.723" width="197.96" height="197.431">
							<feColorMatrix  type="matrix" values="1 0 0 0 0  0 1 0 0 0  0 0 1 0 0  0 0 0 1 0"/>
						</filter>
					</defs>
					<mask maskUnits="userSpaceOnUse" x="-15.883" y="53.723" width="197.96" height="197.431" id="SVGID_61_">
						<g filter="url(#Adobe_OpacityMaskFilter_7_)">
							
								<linearGradient id="SVGID_62_" gradientUnits="userSpaceOnUse" x1="0" y1="272" x2="1" y2="272" gradientTransform="matrix(10.9158 -13.9346 -13.9346 -10.9158 3863.5386 3133.9998)">
								<stop  offset="0" style="stop-color:#000000"/>
								<stop  offset="0.7329" style="stop-color:#FFFFFF"/>
								<stop  offset="1" style="stop-color:#FFFFFF"/>
							</linearGradient>
							<polygon clip-path="url(#SVGID_60_)" fill="url(#SVGID_62_)" points="-15.883,163.356 70,53.723 182.077,141.521 
								96.194,251.154 							"/>
						</g>
					</mask>
					
						<linearGradient id="SVGID_63_" gradientUnits="userSpaceOnUse" x1="0" y1="272" x2="1" y2="272" gradientTransform="matrix(10.9158 -13.9346 -13.9346 -10.9158 3863.5388 3134)">
						<stop  offset="0" style="stop-color:#FFFFFF"/>
						<stop  offset="0.7329" style="stop-color:#004864"/>
						<stop  offset="1" style="stop-color:#004864"/>
					</linearGradient>
					<polygon clip-path="url(#SVGID_60_)" mask="url(#SVGID_61_)" fill="url(#SVGID_63_)" points="-15.883,163.356 70,53.723 
						182.077,141.521 96.194,251.154 					"/>
				</g>
			</g>
		</g>
		<g opacity="0.35" clip-path="url(#SVGID_7_)">
			<g>
				<defs>
					<rect id="SVGID_64_" x="35.428" y="140.393" width="102.301" height="57.665"/>
				</defs>
				<clipPath id="SVGID_65_">
					<use xlink:href="#SVGID_64_"  overflow="visible"/>
				</clipPath>
				<g clip-path="url(#SVGID_65_)">
					<defs>
						<path id="SVGID_66_" d="M54.904,169.585l82.706,28.472c0.039-0.006,0.082-0.011,0.119-0.017L35.428,140.393l5.617,9.483
							L54.904,169.585z"/>
					</defs>
					<clipPath id="SVGID_67_">
						<use xlink:href="#SVGID_66_"  overflow="visible"/>
					</clipPath>
					<defs>
						
							<filter id="Adobe_OpacityMaskFilter_8_" filterUnits="userSpaceOnUse" x="12.078" y="98.967" width="149.002" height="140.515">
							<feColorMatrix  type="matrix" values="1 0 0 0 0  0 1 0 0 0  0 0 1 0 0  0 0 0 1 0"/>
						</filter>
					</defs>
					<mask maskUnits="userSpaceOnUse" x="12.078" y="98.967" width="149.002" height="140.515" id="SVGID_68_">
						<g filter="url(#Adobe_OpacityMaskFilter_8_)">
							
								<linearGradient id="SVGID_69_" gradientUnits="userSpaceOnUse" x1="0" y1="272" x2="1" y2="272" gradientTransform="matrix(4.8316 -9.4655 -9.4655 -4.8316 2656.9658 1491.7007)">
								<stop  offset="0" style="stop-color:#000000"/>
								<stop  offset="0.7329" style="stop-color:#FFFFFF"/>
								<stop  offset="1" style="stop-color:#FFFFFF"/>
							</linearGradient>
							<polygon clip-path="url(#SVGID_67_)" fill="url(#SVGID_69_)" points="12.078,186.138 56.574,98.967 161.08,152.312 
								116.583,239.482 							"/>
						</g>
					</mask>
					
						<linearGradient id="SVGID_70_" gradientUnits="userSpaceOnUse" x1="0" y1="272" x2="1" y2="272" gradientTransform="matrix(4.8316 -9.4655 -9.4655 -4.8316 2656.9658 1491.7008)">
						<stop  offset="0" style="stop-color:#FFFFFF"/>
						<stop  offset="0.7329" style="stop-color:#004864"/>
						<stop  offset="1" style="stop-color:#004864"/>
					</linearGradient>
					<polygon clip-path="url(#SVGID_67_)" mask="url(#SVGID_68_)" fill="url(#SVGID_70_)" points="12.078,186.138 56.574,98.967 
						161.08,152.312 116.583,239.482 					"/>
				</g>
			</g>
		</g>
		<g opacity="0.35" clip-path="url(#SVGID_7_)">
			<g>
				<defs>
					<rect id="SVGID_71_" x="54.927" y="169.6" width="82.683" height="28.638"/>
				</defs>
				<clipPath id="SVGID_72_">
					<use xlink:href="#SVGID_71_"  overflow="visible"/>
				</clipPath>
				<g clip-path="url(#SVGID_72_)">
					<defs>
						<path id="SVGID_73_" d="M89.209,190.957c11.739,4.35,24.561,6.801,37.912,7.121c0.675,0.015,7.997,0.363,10.489-0.021
							L54.927,169.6l11.343,7.909L89.209,190.957z"/>
					</defs>
					<clipPath id="SVGID_74_">
						<use xlink:href="#SVGID_73_"  overflow="visible"/>
					</clipPath>
					<defs>
						<filter id="Adobe_OpacityMaskFilter_9_" filterUnits="userSpaceOnUse" x="46.94" y="146.702" width="98.657" height="74.637">
							<feColorMatrix  type="matrix" values="1 0 0 0 0  0 1 0 0 0  0 0 1 0 0  0 0 0 1 0"/>
						</filter>
					</defs>
					<mask maskUnits="userSpaceOnUse" x="46.94" y="146.702" width="98.657" height="74.637" id="SVGID_75_">
						<g filter="url(#Adobe_OpacityMaskFilter_9_)">
							
								<linearGradient id="SVGID_76_" gradientUnits="userSpaceOnUse" x1="0" y1="271.9961" x2="1" y2="271.9961" gradientTransform="matrix(3.2917 -10.8911 -10.8911 -3.2917 3055.6328 1089.1333)">
								<stop  offset="0" style="stop-color:#000000"/>
								<stop  offset="0.7329" style="stop-color:#FFFFFF"/>
								<stop  offset="1" style="stop-color:#FFFFFF"/>
							</linearGradient>
							<polygon clip-path="url(#SVGID_74_)" fill="url(#SVGID_76_)" points="46.94,196.027 61.848,146.702 145.597,172.014 
								130.689,221.339 							"/>
						</g>
					</mask>
					
						<linearGradient id="SVGID_77_" gradientUnits="userSpaceOnUse" x1="0" y1="271.9961" x2="1" y2="271.9961" gradientTransform="matrix(3.2917 -10.8911 -10.8911 -3.2917 3055.6328 1089.1333)">
						<stop  offset="0" style="stop-color:#FFFFFF"/>
						<stop  offset="0.7329" style="stop-color:#004864"/>
						<stop  offset="1" style="stop-color:#004864"/>
					</linearGradient>
					<polygon clip-path="url(#SVGID_74_)" mask="url(#SVGID_75_)" fill="url(#SVGID_77_)" points="46.94,196.027 61.848,146.702 
						145.597,172.014 130.689,221.339 					"/>
				</g>
			</g>
		</g>
		<path clip-path="url(#SVGID_7_)" fill="#FFFFFF" d="M117.276,58.897c-0.027-0.021-0.055-0.042-0.082-0.063l0.032,0.213
			l0.079,0.039L117.276,58.897z"/>
		<path clip-path="url(#SVGID_7_)" fill="#012639" d="M231.183,203.429c-17.533,0-32.696-9.475-41.462-21.322v72.736h-20.138V78.57
			h19.427v19.428c8.53-12.32,24.168-22.507,42.173-22.507c35.066,0,60.89,28.667,60.89,63.731
			C292.073,174.762,266.249,203.429,231.183,203.429 M231.183,93.97c-22.508,0-41.462,20.377-41.462,45.252
			c0,25.116,18.954,45.729,41.462,45.729c22.745,0,40.752-20.612,40.752-45.729C271.935,114.347,253.928,93.97,231.183,93.97"/>
		<rect x="302.238" y="24.315" clip-path="url(#SVGID_7_)" fill="#012639" width="20.14" height="176.272"/>
		<path clip-path="url(#SVGID_7_)" fill="#012639" d="M414.273,78.532v75.055c0,9.156-3.465,17.116-9.19,22.777
			c-5.095,5.713-12.654,8.971-22.448,8.971c-0.019,0-0.036-0.003-0.055-0.003s-0.036,0.003-0.055,0.003
			c-9.794,0-17.353-3.258-22.448-8.971c-5.725-5.661-9.189-13.621-9.189-22.777V78.532h-18.354v73.634
			c0,18.123,6.197,33.058,17.643,42.075c7.558,5.955,17.397,9.336,29.271,9.336h6.269c11.871,0,21.713-3.381,29.27-9.336
			c11.445-9.018,17.643-23.952,17.643-42.075V78.532H414.273z"/>
		<path clip-path="url(#SVGID_7_)" fill="#012639" d="M615.741,200.587h-20.138v-76.053c0-18.954-9.003-30.564-27.72-30.564
			c-16.586,0-28.669,13.743-28.669,31.985v74.632h-19.902v-76.053c0-18.954-9.477-30.564-27.482-30.564
			c-16.584,0-28.905,13.743-28.905,31.985v74.632h-20.138V78.533h19.426v13.305c7.582-10.187,18.954-16.347,32.459-16.347
			c17.296,0,30.09,7.818,37.672,20.849c7.581-12.556,20.613-20.849,38.145-20.849c28.194,0,45.253,19.191,45.253,49.517V200.587z"/>
		<g opacity="0.51" clip-path="url(#SVGID_7_)">
			<g>
				<defs>
					<rect id="SVGID_78_" x="40.306" y="23.699" width="97.77" height="173.444"/>
				</defs>
				<clipPath id="SVGID_79_">
					<use xlink:href="#SVGID_78_"  overflow="visible"/>
				</clipPath>
				
					<line clip-path="url(#SVGID_79_)" fill="none" stroke="#FFFFFF" stroke-width="0.507" stroke-miterlimit="10" x1="40.527" y1="23.823" x2="137.855" y2="197.019"/>
			</g>
		</g>
		<g opacity="0.51" clip-path="url(#SVGID_7_)">
			<g>
				<defs>
					<rect id="SVGID_80_" x="82.247" y="35.023" width="56.292" height="162.079"/>
				</defs>
				<clipPath id="SVGID_81_">
					<use xlink:href="#SVGID_80_"  overflow="visible"/>
				</clipPath>
				
					<line clip-path="url(#SVGID_81_)" fill="none" stroke="#FFFFFF" stroke-width="0.507" stroke-miterlimit="10" x1="82.486" y1="35.105" x2="138.298" y2="197.02"/>
			</g>
		</g>
		<g opacity="0.51" clip-path="url(#SVGID_7_)">
			<g>
				<defs>
					<rect id="SVGID_82_" x="116.829" y="55.418" width="21.806" height="142.612"/>
				</defs>
				<clipPath id="SVGID_83_">
					<use xlink:href="#SVGID_82_"  overflow="visible"/>
				</clipPath>
				
					<line clip-path="url(#SVGID_83_)" fill="none" stroke="#FFFFFF" stroke-width="0.507" stroke-miterlimit="10" x1="117.08" y1="55.455" x2="138.385" y2="197.992"/>
			</g>
		</g>
		<g opacity="0.51" clip-path="url(#SVGID_7_)">
			<g>
				<defs>
					<rect id="SVGID_84_" x="138.192" y="87.11" width="3.783" height="115.755"/>
				</defs>
				<clipPath id="SVGID_85_">
					<use xlink:href="#SVGID_84_"  overflow="visible"/>
				</clipPath>
				
					<line clip-path="url(#SVGID_85_)" fill="none" stroke="#FFFFFF" stroke-width="0.507" stroke-miterlimit="10" x1="141.722" y1="87.117" x2="138.446" y2="202.858"/>
			</g>
		</g>
		<g opacity="0.51" clip-path="url(#SVGID_7_)">
			<g>
				<defs>
					<rect id="SVGID_86_" x="137.362" y="123.342" width="17.042" height="77.091"/>
				</defs>
				<clipPath id="SVGID_87_">
					<use xlink:href="#SVGID_86_"  overflow="visible"/>
				</clipPath>
				
					<line clip-path="url(#SVGID_87_)" fill="none" stroke="#FFFFFF" stroke-width="0.507" stroke-miterlimit="10" x1="154.156" y1="123.395" x2="137.61" y2="200.38"/>
			</g>
		</g>
		<g opacity="0.51" clip-path="url(#SVGID_7_)">
			<g>
				<defs>
					<rect id="SVGID_88_" x="30.111" y="67.506" width="107.939" height="129.676"/>
				</defs>
				<clipPath id="SVGID_89_">
					<use xlink:href="#SVGID_88_"  overflow="visible"/>
				</clipPath>
				
					<line clip-path="url(#SVGID_89_)" fill="none" stroke="#FFFFFF" stroke-width="0.507" stroke-miterlimit="10" x1="30.306" y1="67.668" x2="137.854" y2="197.02"/>
			</g>
		</g>
		<g opacity="0.51" clip-path="url(#SVGID_7_)">
			<g>
				<defs>
					<rect id="SVGID_90_" x="26.29" y="104.01" width="114.943" height="95.72"/>
				</defs>
				<clipPath id="SVGID_91_">
					<use xlink:href="#SVGID_90_"  overflow="visible"/>
				</clipPath>
				
					<line clip-path="url(#SVGID_91_)" fill="none" stroke="#FFFFFF" stroke-width="0.507" stroke-miterlimit="10" x1="26.452" y1="104.205" x2="141.07" y2="199.535"/>
			</g>
		</g>
		<g opacity="0.51" clip-path="url(#SVGID_7_)">
			<g>
				<defs>
					<rect id="SVGID_92_" x="31.594" y="137.117" width="108.571" height="61.453"/>
				</defs>
				<clipPath id="SVGID_93_">
					<use xlink:href="#SVGID_92_"  overflow="visible"/>
				</clipPath>
				
					<line clip-path="url(#SVGID_93_)" fill="none" stroke="#FFFFFF" stroke-width="0.507" stroke-miterlimit="10" x1="31.719" y1="137.338" x2="140.04" y2="198.35"/>
			</g>
		</g>
		<g opacity="0.51" clip-path="url(#SVGID_7_)">
			<g>
				<defs>
					<rect id="SVGID_94_" x="50.297" y="166.759" width="88.083" height="30.5"/>
				</defs>
				<clipPath id="SVGID_95_">
					<use xlink:href="#SVGID_94_"  overflow="visible"/>
				</clipPath>
				
					<line clip-path="url(#SVGID_95_)" fill="none" stroke="#FFFFFF" stroke-width="0.507" stroke-miterlimit="10" x1="50.379" y1="166.999" x2="138.298" y2="197.02"/>
			</g>
		</g>
		<polygon clip-path="url(#SVGID_7_)" fill="#FFFFFF" points="54.96,168.623 54.868,168.531 54.904,168.584 		"/>
	</g>
</g>
</svg>
